<svg width="20" height="22" viewBox="0 0 20 22" fill="none" xmlns="http://www.w3.org/2000/svg">
<path fill-rule="evenodd" clip-rule="evenodd" d="M19.9931 19.9799L18.9491 21.0269L13.1821 15.2429C12.8501 15.5419 12.4861 15.8089 12.0881 16.0409C11.6901 16.2739 11.2761 16.4729 10.8451 16.6389C10.4141 16.8059 9.95808 16.9309 9.47808 17.0129C8.99708 17.0959 8.52508 17.1379 8.06108 17.1379C6.93408 17.1379 5.88108 16.9219 4.90408 16.4899C3.92608 16.0579 3.07208 15.4759 2.34408 14.7449C1.61408 14.0139 1.04308 13.1579 0.62908 12.1769C0.21408 11.1969 0.00708008 10.1579 0.00708008 9.06089C0.00708008 7.93089 0.21408 6.87589 0.62908 5.89489C1.04308 4.91489 1.61408 4.05889 2.34408 3.32689C3.07208 2.59589 3.92608 2.02289 4.90408 1.60689C5.88108 1.19189 6.93408 0.983887 8.06108 0.983887C9.15508 0.983887 10.1901 1.19189 11.1681 1.60689C12.1461 2.02289 12.9991 2.59589 13.7291 3.32689C14.4571 4.05889 15.0381 4.91489 15.4691 5.89489C15.8991 6.87589 16.1151 7.93089 16.1151 9.06089C16.1151 9.52689 16.0731 9.99989 15.9911 10.4819C15.9081 10.9639 15.7831 11.4209 15.6181 11.8529C15.4521 12.2849 15.2531 12.6999 15.0211 13.0989C14.7891 13.4979 14.5241 13.8639 14.2261 14.1959L19.9931 19.9799ZM0.85208 9.06089C0.85208 10.0579 1.03408 10.9889 1.39908 11.8529C1.76308 12.7169 2.27708 13.4819 2.94008 14.1459C3.60308 14.8119 4.37408 15.3349 5.25208 15.7169C6.13008 16.0989 7.06708 16.2899 8.06108 16.2899C9.05508 16.2899 9.98308 16.0989 10.8451 15.7169C11.7071 15.3349 12.4691 14.8119 13.1321 14.1459C13.7951 13.4819 14.3171 12.7169 14.6981 11.8529C15.0791 10.9889 15.2701 10.0579 15.2701 9.06089C15.2701 8.06389 15.0791 7.12489 14.6981 6.24389C14.3171 5.36389 13.7951 4.59089 13.1321 3.92589C12.4691 3.26089 11.7071 2.74589 10.8451 2.37989C9.98308 2.01489 9.05508 1.83089 8.06108 1.83089C7.06708 1.83089 6.13008 2.01489 5.25208 2.37989C4.37408 2.74589 3.60308 3.26089 2.94008 3.92589C2.27708 4.59089 1.76308 5.36389 1.39908 6.24389C1.03408 7.12489 0.85208 8.06389 0.85208 9.06089Z" fill="white"/>
</svg>
