<svg width="58" height="57" viewBox="0 0 58 57" fill="none" xmlns="http://www.w3.org/2000/svg">
<path fill-rule="evenodd" clip-rule="evenodd" d="M57.2659 53.8119L54.3119 56.7659L37.9999 40.4529C37.0619 41.2969 36.0309 42.0479 34.9059 42.7029C33.7809 43.3599 32.6079 43.9219 31.3909 44.3909C30.1709 44.8609 28.8809 45.2119 27.5229 45.4449C26.1629 45.6799 24.8269 45.7969 23.5159 45.7969C20.3269 45.7969 17.3499 45.1879 14.5859 43.9689C11.8199 42.7509 9.40489 41.1099 7.34389 39.0469C5.27989 36.9859 3.66289 34.5709 2.49189 31.8049C1.31889 29.0399 0.733887 26.1089 0.733887 23.0159C0.733887 19.8299 1.31889 16.8519 2.49189 14.0859C3.66289 11.3219 5.27989 8.90689 7.34389 6.84389C9.40489 4.78289 11.8199 3.16489 14.5859 1.99189C17.3499 0.820887 20.3269 0.233887 23.5159 0.233887C26.6089 0.233887 29.5379 0.820887 32.3049 1.99189C35.0689 3.16489 37.4839 4.78289 39.5469 6.84389C41.6079 8.90689 43.2489 11.3219 44.4689 14.0859C45.6859 16.8519 46.2969 19.8299 46.2969 23.0159C46.2969 24.3289 46.1779 25.6649 45.9449 27.0229C45.7099 28.3829 45.3589 29.6729 44.8909 30.8899C44.4199 32.1099 43.8579 33.2809 43.2029 34.4059C42.5459 35.5309 41.7969 36.5639 40.9529 37.4999L57.2659 53.8119ZM3.12489 23.0159C3.12489 25.8279 3.63889 28.4539 4.67189 30.8899C5.70189 33.3289 7.15489 35.4849 9.03089 37.3589C10.9049 39.2359 13.0849 40.7119 15.5699 41.7889C18.0529 42.8679 20.7029 43.4059 23.5159 43.4059C26.3279 43.4059 28.9519 42.8679 31.3909 41.7889C33.8269 40.7119 35.9829 39.2359 37.8589 37.3589C39.7339 35.4849 41.2099 33.3289 42.2889 30.8899C43.3659 28.4539 43.9059 25.8279 43.9059 23.0159C43.9059 20.2029 43.3659 17.5549 42.2889 15.0699C41.2099 12.5869 39.7339 10.4079 37.8589 8.53089C35.9829 6.65689 33.8269 5.20389 31.3909 4.17189C28.9519 3.14089 26.3279 2.62489 23.5159 2.62489C20.7029 2.62489 18.0529 3.14089 15.5699 4.17189C13.0849 5.20389 10.9049 6.65689 9.03089 8.53089C7.15489 10.4079 5.70189 12.5869 4.67189 15.0699C3.63889 17.5549 3.12489 20.2029 3.12489 23.0159Z" fill="#5474FD"/>
</svg>
