<svg width="60" height="61" viewBox="0 0 60 61" fill="none" xmlns="http://www.w3.org/2000/svg">
<path fill-rule="evenodd" clip-rule="evenodd" d="M30.0001 0.546875C34.1241 0.546875 38.0161 1.31988 41.6721 2.86688C45.3281 4.41388 48.5141 6.54788 51.2341 9.26488C53.9521 11.9859 56.0861 15.1719 57.6331 18.8279C59.1801 22.4839 59.9531 26.3759 59.9531 30.4999C59.9531 34.6259 59.1801 38.5149 57.6331 42.1719C56.0861 45.8279 53.9521 49.0159 51.2341 51.7339C48.5141 54.4539 45.3281 56.5859 41.6721 58.1329C38.0161 59.6789 34.1241 60.4529 30.0001 60.4529C25.8731 60.4529 21.9841 59.6789 18.3281 58.1329C14.6721 56.5859 11.4841 54.4539 8.76612 51.7339C6.04512 49.0159 3.91412 45.8279 2.36712 42.1719C0.820119 38.5149 0.0471191 34.6259 0.0471191 30.4999C0.0471191 26.3759 0.820119 22.4839 2.36712 18.8279C3.91412 15.1719 6.04512 11.9859 8.76612 9.26488C11.4841 6.54788 14.6721 4.41388 18.3281 2.86688C21.9841 1.31988 25.8731 0.546875 30.0001 0.546875ZM30.0001 58.0619C33.8431 58.0619 37.4291 57.3369 40.7581 55.8829C44.0841 54.4299 47.0161 52.4859 49.5471 50.0469C51.9841 47.5159 53.9281 44.5869 55.3831 41.2579C56.8351 37.9309 57.5621 34.3449 57.5621 30.4999C57.5621 26.6569 56.8351 23.0709 55.3831 19.7419C53.9281 16.4149 51.9841 13.4839 49.5471 10.9529C47.0161 8.51588 44.0841 6.57188 40.7581 5.11688C37.4291 3.66488 33.8431 2.93688 30.0001 2.93688C26.1551 2.93688 22.5691 3.66488 19.2421 5.11688C15.9131 6.57188 12.9841 8.51588 10.4531 10.9529C8.01412 13.4839 6.07012 16.4149 4.61712 19.7419C3.16312 23.0709 2.43712 26.6569 2.43712 30.4999C2.43712 34.3449 3.16312 37.9309 4.61712 41.2579C6.07012 44.5869 8.01412 47.5159 10.4531 50.0469C12.9841 52.4859 15.9131 54.4299 19.2421 55.8829C22.5691 57.3369 26.1551 58.0619 30.0001 58.0619ZM45.0471 19.8119C45.3281 19.4389 45.7261 19.2499 46.2421 19.2499C46.7561 19.2499 47.2021 19.4389 47.5781 19.8119C47.8591 20.1879 48.0001 20.6339 48.0001 21.1479C48.0001 21.6649 47.8111 22.0619 47.4371 22.3439L26.9061 42.3119C26.8121 42.5009 26.6471 42.6179 26.4141 42.6639C26.1791 42.7119 25.9681 42.7339 25.7811 42.7339C25.5001 42.7339 25.2411 42.7119 25.0081 42.6639C24.7731 42.6179 24.6081 42.5009 24.5161 42.3119L16.5001 34.2969C16.1241 33.9229 15.9381 33.4769 15.9381 32.9609C15.9381 32.4469 16.1241 32.0469 16.5001 31.7649C16.7811 31.3919 17.1791 31.2029 17.6951 31.2029C18.2091 31.2029 18.6551 31.3919 19.0311 31.7649L25.7811 38.5149L45.0471 19.8119Z" fill="#FF6363"/>
</svg>
