<svg width="62" height="59" viewBox="0 0 62 59" fill="none" xmlns="http://www.w3.org/2000/svg">
<path fill-rule="evenodd" clip-rule="evenodd" d="M61.5859 28.6559C61.5859 29.3129 61.491 29.9219 61.305 30.4839C61.116 31.0469 60.8339 31.5629 60.4609 32.0309C60.0849 32.5009 59.663 32.8749 59.195 33.1559C58.725 33.4369 58.2109 33.6719 57.6479 33.8589C57.9299 34.3289 58.163 34.8219 58.351 35.3359C58.538 35.8519 58.6329 36.4389 58.6329 37.0939C58.6329 37.6559 58.538 38.2189 58.351 38.7809C58.163 39.3439 57.9299 39.8599 57.6479 40.3279C57.2729 40.7039 56.8509 41.0549 56.3829 41.3829C55.9119 41.7119 55.445 41.9689 54.977 42.1559C55.258 42.6259 55.491 43.1399 55.68 43.7029C55.866 44.2659 55.9609 44.8279 55.9609 45.3909C55.9609 46.0469 55.866 46.6339 55.68 47.1479C55.491 47.6649 55.258 48.1569 54.977 48.6249C54.601 49.0949 54.1789 49.4929 53.7109 49.8199C53.2409 50.1499 52.726 50.3609 52.164 50.4529C52.538 50.9229 52.8189 51.4159 53.0079 51.9289C53.1949 52.4459 53.289 53.0329 53.289 53.6869C53.289 54.3439 53.148 55.0009 52.867 55.6559C52.586 56.3129 52.21 56.8759 51.742 57.3439C51.18 57.8139 50.569 58.1869 49.914 58.4689C49.257 58.7499 48.554 58.8899 47.805 58.8899H29.2419C28.5849 58.8899 27.8359 58.7979 26.9919 58.6089C26.1479 58.4229 25.2559 58.1409 24.3199 57.7659C23.3819 57.4839 22.4439 57.1329 21.5079 56.7109C20.5699 56.2889 19.6309 55.8909 18.6949 55.5149C17.5699 55.0469 16.4669 54.5799 15.3909 54.1089C14.3119 53.6409 13.5379 53.4059 13.0699 53.4059H0.272949V25.9839L1.39795 25.8439C6.74195 25.8439 10.3979 25.8439 12.3669 25.8439C13.2109 25.8439 13.9839 25.7509 14.6869 25.5619C15.3909 25.3759 16.1159 24.9999 16.8669 24.4369C17.7109 23.9689 18.6709 23.3119 19.7499 22.4689C20.8269 21.6249 22.1159 20.5939 23.6169 19.3749C26.5219 16.9379 28.2339 13.8899 28.7499 10.2339C29.2639 6.57789 29.5229 4.46889 29.5229 3.90589C29.5229 3.34389 29.6639 2.80489 29.9449 2.28889C30.2259 1.77489 30.5999 1.37489 31.0699 1.09389C31.5379 0.719887 32.03 0.460887 32.547 0.319887C33.061 0.178887 33.5529 0.108887 34.0229 0.108887C34.7729 0.108887 35.5219 0.203887 36.2729 0.389887C37.0229 0.578887 37.7259 1.00089 38.3829 1.65589C39.0379 2.31289 39.554 3.18089 39.93 4.25789C40.303 5.33689 40.492 6.76689 40.492 8.54689C40.492 10.1419 40.3729 11.6649 40.1409 13.1169C39.9059 14.5719 39.6 15.9539 39.226 17.2659C38.945 18.5789 38.594 19.7749 38.172 20.8509C37.75 21.9299 37.398 22.8439 37.117 23.5939H56.242C57.086 23.5939 57.811 23.7119 58.422 23.9449C59.031 24.1799 59.617 24.5319 60.18 24.9999C60.648 25.4699 60.999 26.0089 61.234 26.6169C61.467 27.2279 61.5859 27.9069 61.5859 28.6559ZM56.242 31.6089C56.71 31.6089 57.1319 31.5389 57.5079 31.3979C57.8809 31.2579 58.163 31.0469 58.351 30.7649C58.633 30.4839 58.866 30.1809 59.055 29.8519C59.241 29.5239 59.3359 29.1259 59.3359 28.6559C59.3359 27.9069 59.055 27.2499 58.492 26.6869C57.93 26.1249 57.178 25.8439 56.242 25.8439H47.805C47.805 25.9379 47.805 25.9379 47.805 25.8439H33.32L34.164 24.1559C36.788 17.6869 38.102 12.4839 38.102 8.54689C38.102 5.45289 37.585 3.64889 36.555 3.13289C35.522 2.61789 34.6779 2.35889 34.0229 2.35889C33.7419 2.35889 33.3199 2.49989 32.7579 2.78089C32.1949 3.06189 31.9139 3.43789 31.9139 3.90589C31.9139 4.46889 31.8659 5.40689 31.7729 6.71889C31.6789 8.03289 31.3979 9.53089 30.9299 11.2189C30.4589 12.9059 29.7799 14.6419 28.8909 16.4219C27.9989 18.2039 26.7569 19.7509 25.1639 21.0619C23.5689 22.3759 22.2329 23.4769 21.1559 24.3669C20.0769 25.2589 19.0689 25.9839 18.1329 26.5469C17.1939 27.1089 16.2559 27.5309 15.3199 27.8119C14.3819 28.0939 13.3979 28.2339 12.3669 28.2339C11.6159 28.2339 10.7959 28.2339 9.90595 28.2339C9.01395 28.2339 8.09995 28.2339 7.16395 28.2339C6.31995 28.2339 5.49795 28.2339 4.70295 28.2339C3.90495 28.2339 3.22695 28.2339 2.66395 28.2339V51.0159H13.0699C13.7249 51.0159 14.5929 51.2259 15.6719 51.6479C16.7479 52.0699 18.0839 52.6109 19.6799 53.2649C20.4289 53.6409 21.2479 54.0389 22.1409 54.4609C23.0299 54.8829 23.8979 55.2339 24.7419 55.5149C25.6779 55.7969 26.5219 56.0559 27.2729 56.2889C28.0229 56.5239 28.6799 56.6409 29.2419 56.6409H44.851H47.805C48.273 56.6409 48.695 56.5479 49.07 56.3589C49.444 56.1719 49.773 55.9369 50.055 55.6559C50.336 55.4689 50.547 55.1879 50.687 54.8119C50.828 54.4389 50.8979 54.0629 50.8979 53.6869C50.8979 53.2189 50.828 52.8219 50.687 52.4919C50.547 52.1649 50.336 51.8589 50.055 51.5779C49.773 51.2969 49.444 51.0859 49.07 50.9449C48.695 50.8049 48.273 50.7339 47.805 50.7339H47.5229V48.3439H50.7579C51.1309 48.3439 51.5069 48.2729 51.8829 48.1329C52.2559 47.9919 52.586 47.7809 52.867 47.4999C53.054 47.2189 53.241 46.8909 53.43 46.5159C53.616 46.1419 53.7109 45.7659 53.7109 45.3909C53.7109 45.0169 53.616 44.6409 53.43 44.2659C53.241 43.8919 53.054 43.5619 52.867 43.2809C52.586 43.0939 52.2559 42.9069 51.8829 42.7189C51.5069 42.5319 51.1309 42.4369 50.7579 42.4369H49.7729V40.0469H53.289C53.663 40.0469 54.038 39.9759 54.414 39.8359C54.788 39.6949 55.1169 39.4839 55.3979 39.2029C55.6799 38.9219 55.912 38.5939 56.102 38.2189C56.288 37.8449 56.3829 37.4689 56.3829 37.0939C56.3829 36.6259 56.288 36.2039 56.102 35.8279C55.912 35.4539 55.6799 35.1729 55.3979 34.9839C55.1169 34.7029 54.788 34.4699 54.414 34.2809C54.038 34.0939 53.663 33.9999 53.289 33.9999H52.164V31.6089H56.242Z" fill="#00A2FF"/>
</svg>
