<svg width="166" height="166" viewBox="0 0 166 166" fill="none" xmlns="http://www.w3.org/2000/svg">
<path d="M61.461 76.8467H39.1146C36.4542 76.8467 34.1925 75.9158 32.3301 74.0535C30.4688 72.1911 29.5369 69.93 29.5369 67.2689V64.078C29.5369 57.0279 32.0313 51.0096 37.0199 46.021C42.0081 41.0342 48.0275 38.5397 55.0769 38.5397H61.461C63.1899 38.5397 64.6858 37.9076 65.9499 36.6445C67.2134 35.3807 67.8452 33.8848 67.8452 32.1556V19.3852C67.8452 17.6563 67.2131 16.1591 65.9499 14.8952C64.6861 13.6331 63.1903 13 61.461 13H55.0769C48.1596 13 41.5602 14.348 35.2746 17.0403C28.9897 19.7343 23.5535 23.3759 18.964 27.9654C14.3748 32.5529 10.7342 37.9894 8.04062 44.275C5.34699 50.5599 4 57.161 4 64.0777V134.307C4 139.63 5.86132 144.15 9.58572 147.876C13.3105 151.6 17.834 153.461 23.1541 153.461H61.4635C66.7833 153.461 71.3054 151.6 75.0305 147.876C78.7542 144.15 80.6166 139.63 80.6166 134.307V96.0009C80.6166 90.6786 78.7542 86.1586 75.028 82.4324C71.3047 78.7091 66.7808 76.8467 61.461 76.8467Z" fill="black"/>
<path d="M156.646 82.4324C152.923 78.7091 148.4 76.8467 143.079 76.8467H120.733C118.074 76.8467 115.81 75.9158 113.951 74.0535C112.088 72.1911 111.158 69.93 111.158 67.2689V64.078C111.158 57.0279 113.652 51.0096 118.638 46.021C123.625 41.0342 129.644 38.5397 136.697 38.5397H143.08C144.809 38.5397 146.306 37.9076 147.569 36.6445C148.831 35.3807 149.465 33.8848 149.465 32.1556V19.3852C149.465 17.6563 148.832 16.1591 147.569 14.8952C146.306 13.6331 144.809 13 143.08 13H136.697C129.776 13 123.178 14.348 116.89 17.0403C110.607 19.7343 105.172 23.3759 100.583 27.9654C95.993 32.5529 92.3507 37.9894 89.6581 44.275C86.9652 50.5599 85.6165 57.161 85.6165 64.0777V134.307C85.6165 139.63 87.4795 144.15 91.2029 147.876C94.9266 151.6 99.449 153.461 104.77 153.461H143.077C148.398 153.461 152.92 151.6 156.644 147.876C160.37 144.15 162.229 139.63 162.229 134.307V96.0009C162.23 90.6782 160.37 86.1586 156.646 82.4324Z" fill="black"/>
</svg>
